<svg xmlns="http://www.w3.org/2000/svg" viewBox="0 0 512 512">
  <rect width="512" height="512" rx="128" fill="#0c0a08"/>
  <circle cx="256" cy="256" r="142" fill="none" stroke="#f5efe6" stroke-width="28"/>
  <g fill="#f5efe6">
    <path d="M256 105a151 151 0 0 1 107 44l-82 44H151a151 151 0 0 1 105-88z"/>
    <path d="M385 171a151 151 0 0 1 17 115l-76-54-45-39 82-44c8 6 15 14 22 22z"/>
    <path d="M394 322a151 151 0 0 1-89 80l5-94 16-76 76 54c-2 12-5 24-8 36z"/>
    <path d="M256 407a151 151 0 0 1-107-44l82-44h79l-5 94c-16 5-32 7-49 7z"/>
    <path d="M127 341a151 151 0 0 1-17-115l76 54 45 39-82 44c-8-6-15-14-22-22z"/>
    <path d="M118 190a151 151 0 0 1 89-80l-5 94-16 76-76-54c2-12 5-24 8-36z"/>
  </g>
  <circle cx="256" cy="256" r="58" fill="#0c0a08"/>
</svg>
